<svg width="33" height="32" viewBox="0 0 33 32" fill="none" xmlns="http://www.w3.org/2000/svg">
<path d="M7.45201 28.6665C6.7785 28.6665 6.20841 28.4332 5.74175 27.9665C5.27508 27.4999 5.04175 26.9298 5.04175 26.2563V8.41021C5.04175 7.7367 5.27508 7.16661 5.74175 6.69994C6.20841 6.23328 6.7785 5.99994 7.45201 5.99994H9.29818V3.17944H11.3494V5.99994H21.4519V3.17944H23.4519V5.99994H25.2981C25.9716 5.99994 26.5417 6.23328 27.0084 6.69994C27.475 7.16661 27.7084 7.7367 27.7084 8.41021V26.2563C27.7084 26.9298 27.475 27.4999 27.0084 27.9665C26.5417 28.4332 25.9716 28.6665 25.2981 28.6665H7.45201ZM7.45201 26.6666H25.2981C25.4007 26.6666 25.4947 26.6238 25.5802 26.5384C25.6656 26.4529 25.7084 26.3589 25.7084 26.2563V13.7435H7.04171V26.2563C7.04171 26.3589 7.08445 26.4529 7.16991 26.5384C7.2554 26.6238 7.34944 26.6666 7.45201 26.6666ZM7.04171 11.7436H25.7084V8.41021C25.7084 8.30763 25.6656 8.2136 25.5802 8.12811C25.4947 8.04264 25.4007 7.99991 25.2981 7.99991H7.45201C7.34944 7.99991 7.2554 8.04264 7.16991 8.12811C7.08445 8.2136 7.04171 8.30763 7.04171 8.41021V11.7436Z" fill="#F7F8F9"/>
</svg>
